<?xml version="1.0" standalone="no"?>
<!DOCTYPE svg PUBLIC "-//W3C//DTD SVG 20010904//EN"
 "http://www.w3.org/TR/2001/REC-SVG-20010904/DTD/svg10.dtd">
<svg version="1.0" xmlns="http://www.w3.org/2000/svg"
 width="700.000000pt" height="700.000000pt" viewBox="0 0 700.000000 700.000000"
 preserveAspectRatio="xMidYMid meet">
<metadata>
Created by potrace 1.11, written by Peter Selinger 2001-2013
</metadata>
<g transform="translate(0.000000,700.000000) scale(0.100000,-0.100000)"
fill="#000000" stroke="none">
<path d="M2386 6812 c-39 -16 -73 -48 -94 -87 -15 -27 -16 -129 -18 -1010 -1
-539 -2 -982 -3 -985 0 -3 -439 -5 -973 -4 -1044 1 -1011 2 -1066 -49 -13 -12
-31 -35 -40 -52 -15 -27 -16 -220 -17 -2164 0 -1612 3 -2143 12 -2169 13 -40
47 -78 88 -100 27 -15 222 -16 2164 -17 1604 0 2143 3 2169 12 44 15 80 49
101 94 15 32 16 132 16 1012 0 537 2 978 5 978 3 1 444 3 980 4 536 2 983 5
993 7 29 7 85 56 104 91 16 30 17 166 18 2166 0 1668 -2 2141 -12 2170 -14 40
-66 94 -103 107 -14 4 -985 8 -2159 9 -1743 0 -2139 -2 -2165 -13z m-115
-2442 c1 -3 2 -446 3 -985 2 -880 4 -983 18 -1010 22 -41 60 -75 100 -88 25
-9 290 -12 1006 -12 644 0 972 -3 973 -10 3 -25 5 -1721 2 -1730 -2 -7 -652
-10 -1926 -10 l-1922 1 0 1924 0 1925 873 0 c479 0 873 -2 873 -5z m2100 -10
c1 -8 2 -401 3 -873 1 -565 -2 -857 -9 -858 -38 -4 -1735 -3 -1736 1 -5 22 -3
1736 2 1740 4 3 397 5 873 5 763 0 866 -2 867 -15z"/>
</g>
</svg>
